<svg id="Layer_1" xmlns="http://www.w3.org/2000/svg" viewBox="0 0 39.35 31.61">
  <defs>
    <style>
      .cls-1 {
        fill: #fba81e;
      }
    </style>
  </defs>
  <title>reset</title>
  <g>
    <path class="cls-1" d="M10.81,12.64a14,14,0,0,1,24,.54l1.73-1A16,16,0,0,0,9.23,11.4L4.39,7.6,3,20.32l12-4.35Z" transform="translate(-3.04 -4.15)"/>
    <path class="cls-1" d="M42.39,19.59l-12,4.35,4.25,3.33a14,14,0,0,1-23.95-.55l-1.74,1a16,16,0,0,0,13.87,8,15.79,15.79,0,0,0,1.94-.12A16,16,0,0,0,36.2,28.5L41,32.3Z" transform="translate(-3.04 -4.15)"/>
  </g>
</svg>
