<svg class="trashbinSVG" xmlns="http://www.w3.org/2000/svg" viewBox="0 0 35.87 47.15">
  <title>trashbin</title>
  <path fill="#ef4d4e" d="M35.48,7.2H27.66V4.33a2.23,2.23,0,0,0-2.23-2.24h-12a2.24,2.24,0,0,0-2.24,2.24V7.2H3.37A1.88,1.88,0,0,0,1.49,9.08V10.3H37.36V9.08A1.88,1.88,0,0,0,35.48,7.2ZM13.3,5.69a1.75,1.75,0,0,1,1.75-1.75H23.8a1.75,1.75,0,0,1,1.75,1.75V7.2H13.3Z" transform="translate(-1.49 -2.09)"/>
  <path fill="#ef4d4e" d="M4.36,13V43.67a5.57,5.57,0,0,0,5.58,5.57h19a5.57,5.57,0,0,0,5.58-5.57V13ZM14.3,45.62H11.19V16.3H14.3Zm6.68,0H17.87V16.3H21Zm6.68,0H24.55V16.3h3.11Z" transform="translate(-1.49 -2.09)"/>
</svg>
